<?xml version="1.0" standalone="no"?><!DOCTYPE svg PUBLIC "-//W3C//DTD SVG 1.1//EN" "http://www.w3.org/Graphics/SVG/1.1/DTD/svg11.dtd"><svg t="1565835540057" class="icon" viewBox="0 0 1024 1024" version="1.1" xmlns="http://www.w3.org/2000/svg" p-id="5081" xmlns:xlink="http://www.w3.org/1999/xlink" width="48" height="48"><defs><style type="text/css"></style></defs><path d="M512 0A512 512 0 1 1 0 512 512 512 0 0 1 512 0zM91.35423 535.988459a175.137574 175.137574 0 0 0 77.958295 74.861115 238.575213 238.575213 0 0 0 107.746623 25.532852 203.331148 203.331148 0 0 0 151.468065-61.322492q60.155803-61.314098 60.164197-154.556852 0-92.462164-59.593443-153.012459t-152.81941-60.541902a224.457443 224.457443 0 0 0-109.249049 26.691148 183.220459 183.220459 0 0 0-75.633311 77.379147A222.275148 222.275148 0 0 0 64.629508 415.861508a249.419541 249.419541 0 0 0 26.724722 120.126951z m113.73954-207.947541a94.845902 94.845902 0 0 1 142.957115 0Q376.865574 360.540328 376.865574 420.88918q0 61.901639-28.823082 94.40105a94.845902 94.845902 0 0 1-142.957115 0q-29.016131-32.49941-29.016131-93.628853t29.024524-93.620459z m356.293246 207.947541a175.137574 175.137574 0 0 0 77.958295 74.861115 238.575213 238.575213 0 0 0 107.746623 25.532852 203.322754 203.322754 0 0 0 151.459673-61.322492q60.155803-61.314098 60.164196-154.556852 0-92.462164-59.593442-153.012459t-152.811017-60.541902a224.457443 224.457443 0 0 0-109.249049 26.691148 183.220459 183.220459 0 0 0-75.633311 77.379147A222.275148 222.275148 0 0 0 534.662295 415.861508a249.419541 249.419541 0 0 0 26.724721 120.126951z m113.739541-207.947541a94.845902 94.845902 0 0 1 142.957115 0q28.814689 32.49941 28.823082 92.856656 0 61.901639-28.823082 94.401049a94.845902 94.845902 0 0 1-142.957115 0q-29.016131-32.49941-29.016131-93.628853t29.016131-93.628852z" fill="#0076F7" p-id="5082"></path></svg>